<?xml version="1.0" encoding="UTF-8"?> <svg xmlns="http://www.w3.org/2000/svg" xmlns:xlink="http://www.w3.org/1999/xlink" viewBox="0 0 194.33 88.45"><defs><style>.q{fill:url(#g);}.q,.r,.s,.t,.u,.v,.w,.x,.y,.z,.aa,.ab{mix-blend-mode:multiply;opacity:.5;}.ac{fill:#00965f;}.r{fill:url(#k);}.s{fill:url(#i);}.t{fill:url(#m);}.ad{isolation:isolate;}.u{fill:url(#e);}.v{fill:url(#n);}.w{fill:url(#l);}.x{fill:url(#c);}.y{fill:url(#f);}.z{fill:url(#j);}.aa{fill:url(#d);}.ab{fill:url(#h);}.ae{fill:#164734;}</style><linearGradient id="c" x1="37.94" y1="33.75" x2="48.98" y2="27.38" gradientUnits="userSpaceOnUse"><stop offset="0" stop-color="#0e3932" stop-opacity="0"></stop><stop offset=".28" stop-color="#0e3932" stop-opacity=".06"></stop><stop offset=".54" stop-color="#0e3932" stop-opacity=".25"></stop><stop offset=".78" stop-color="#0e3932" stop-opacity=".57"></stop><stop offset="1" stop-color="#0e3932"></stop></linearGradient><linearGradient id="d" x1="110.33" x2="121.36" y2="27.38" xlink:href="#c"></linearGradient><linearGradient id="e" x1="134.13" x2="145.16" y2="27.38" xlink:href="#c"></linearGradient><linearGradient id="f" x1="157.95" x2="168.98" y2="27.38" xlink:href="#c"></linearGradient><linearGradient id="g" x1="61.74" x2="72.77" y2="27.38" xlink:href="#c"></linearGradient><linearGradient id="h" x1="85.65" y1="29.35" x2="93.99" y2="24.54" xlink:href="#c"></linearGradient><linearGradient id="i" x1="39.34" y1="32.94" x2="26.85" y2="40.15" gradientUnits="userSpaceOnUse"><stop offset="0" stop-color="#0e3932" stop-opacity="0"></stop><stop offset=".25" stop-color="#0e3932" stop-opacity=".14"></stop><stop offset=".63" stop-color="#0e3932" stop-opacity=".52"></stop><stop offset="1" stop-color="#0e3932"></stop></linearGradient><linearGradient id="j" x1="63.14" y1="32.94" x2="50.65" y2="40.15" xlink:href="#i"></linearGradient><linearGradient id="k" x1="111.73" x2="99.24" y2="40.15" xlink:href="#i"></linearGradient><linearGradient id="l" x1="135.53" x2="123.04" y2="40.15" xlink:href="#i"></linearGradient><linearGradient id="m" x1="159.35" x2="146.85" y2="40.15" xlink:href="#i"></linearGradient><linearGradient id="n" x1="86.71" y1="28.74" x2="77.26" y2="34.2" xlink:href="#i"></linearGradient></defs><g class="ad"><g id="b"><g><g><path class="ac" d="M32.94,64.81l1.97,7.66,1.87-7.66h2.34l-2.97,11.39h-2.17l-2-7.51-2,7.51h-2.17l-2.97-11.39h2.39l1.85,7.66,2-7.66h1.86Zm11.22,11.39h-2.37v-11.39h2.37v11.39Zm2.67-11.39h9.72v2.08h-3.67v9.31h-2.39v-9.31h-3.65v-2.08Zm22.29,0v11.39h-2.37v-4.79h-5.16v4.79h-2.37v-11.39h2.37v4.53h5.16v-4.53h2.37Z"></path><path class="ac" d="M119.24,64.81l1.97,7.66,1.87-7.66h2.34l-2.97,11.39h-2.17l-2-7.51-2,7.51h-2.17l-2.97-11.39h2.39l1.85,7.66,2-7.66h1.86Zm11.22,11.39h-2.37v-11.39h2.37v11.39Zm2.67-11.39h9.72v2.08h-3.67v9.31h-2.39v-9.31h-3.65v-2.08Zm22.29,0v11.39h-2.37v-4.79h-5.16v4.79h-2.37v-11.39h2.37v4.53h5.16v-4.53h2.37Z"></path></g><polygon class="ac" points="169.84 12.26 169.83 12.26 156.06 12.26 156.06 12.26 151.02 30.86 146.02 12.26 146.02 12.26 132.25 12.26 132.24 12.26 127.21 30.83 122.22 12.26 122.22 12.26 108.44 12.26 108.44 12.26 103.45 30.7 98.49 12.26 97.51 12.26 97.51 12.26 83.73 12.26 79.36 28.4 73.63 12.26 59.85 12.26 54.82 30.83 49.83 12.26 36.05 12.26 31.02 30.83 26.04 12.27 12.26 12.27 24.11 56.36 37.88 56.36 42.91 37.79 47.91 56.36 61.68 56.36 67.68 34.24 71.85 46.09 71.82 56.36 86.1 56.36 86.1 47.3 90.23 34.6 96.53 56.23 96.49 56.36 110.27 56.36 115.3 37.79 120.29 56.36 120.3 56.36 120.3 56.36 134.07 56.36 139.1 37.79 144.09 56.36 144.11 56.36 144.11 56.36 157.89 56.36 162.92 37.79 167.91 56.36 181.69 56.36 169.84 12.26"></polygon><path class="ae" d="M194.33,64.81v12.69c0,6.04-4.92,10.96-10.96,10.96h-16.06v-2.29h16.06c4.78,0,8.67-3.89,8.67-8.67v-12.69h2.29Z"></path><path class="ae" d="M64.68,0H10.96C4.92,0,0,4.92,0,10.96v13.28H2.29V10.96C2.29,6.18,6.18,2.29,10.96,2.29h53.72V0Z"></path><g><path class="ae" d="M79.89,64.81h3.75l-4.08,7.64v3.75h-3.62v-3.75l-4.02-7.64h3.89l2.04,4.06,2.04-4.06Zm10.16,11.57c-3.41,0-5.73-2.49-5.73-5.88s2.32-5.88,5.73-5.88,5.75,2.47,5.75,5.88-2.34,5.88-5.75,5.88Zm0-8.62c-1.26,0-2.11,1.04-2.11,2.75s.85,2.74,2.11,2.74,2.13-1.04,2.13-2.74-.87-2.75-2.13-2.75Zm7.97,3.73v-6.68h3.58v6.36c0,1.28,.65,2,1.61,2s1.61-.72,1.61-2v-6.36h3.58v6.68c0,3.13-2,4.9-5.19,4.9s-5.19-1.76-5.19-4.9Z"></path><path class="ae" d="M164.66,73.75l-2.56-3.23v5.68h-3.52v-11.39h3.34l2.78,3.88,2.8-3.88h3.34v11.39h-3.52v-5.68l-2.58,3.23h-.07Zm17.41-8.94v3.06h-5.03v1.08h4.6v2.97h-4.6v1.21h5.03v3.08h-8.57v-11.39h8.57Z"></path></g><g><polygon class="x" points="31.02 30.83 37.88 56.36 42.91 37.79 36.05 12.26 31.02 30.83"></polygon><polygon class="aa" points="103.45 30.77 110.27 56.36 115.3 37.79 108.44 12.26 103.45 30.77"></polygon><polygon class="u" points="127.22 30.77 134.07 56.36 139.1 37.79 132.24 12.26 127.22 30.77"></polygon><polygon class="y" points="151.03 30.77 157.89 56.36 162.92 37.79 156.06 12.26 151.03 30.77"></polygon><polygon class="q" points="54.82 30.83 61.68 56.36 67.68 34.24 59.85 12.26 54.82 30.83"></polygon><polygon class="ab" points="79.36 28.4 86.1 47.3 90.23 34.6 83.73 12.26 79.36 28.4"></polygon><polygon class="s" points="31.02 30.83 37.88 56.36 42.91 37.79 36.05 12.26 31.02 30.83"></polygon><polygon class="z" points="54.82 30.83 61.68 56.36 67.68 34.24 59.85 12.26 54.82 30.83"></polygon><polygon class="r" points="103.45 30.77 110.27 56.36 115.3 37.79 108.44 12.26 103.45 30.77"></polygon><polygon class="w" points="127.22 30.77 134.07 56.36 139.1 37.79 132.24 12.26 127.22 30.77"></polygon><polygon class="t" points="151.03 30.77 157.89 56.36 162.92 37.79 156.06 12.26 151.03 30.77"></polygon><polygon class="v" points="79.36 28.4 86.1 47.3 90.23 34.6 83.73 12.26 79.36 28.4"></polygon></g></g></g></g></svg> 